<svg xmlns="http://www.w3.org/2000/svg" width="313" height="313" viewBox="0 0 313 313">
  <path fill="#0450A9" d="M305.6,178.053 C302.4,177.253 299.2,178.053 296.4,180.053 C286,188.853 274,196.053 260.8,200.853 C248.4,205.653 234.8,208.053 220.4,208.053 C188,208.053 158.4,194.853 137.2,173.653 C116,152.453 102.8,122.853 102.8,90.453 C102.8,76.853 105.2,63.653 109.2,51.653 C113.6,38.853 120,27.253 128.4,17.253 C132,12.853 131.2,6.453 126.8,2.853 C124,0.853 120.8,0.053 117.6,0.853 C83.6,10.053 54,30.453 32.8,57.653 C12.4,84.453 -2.84217094e-14,117.653 -2.84217094e-14,154.053 C-2.84217094e-14,197.653 17.6,237.253 46.4,266.053 C75.2,294.853 114.8,312.453 158.4,312.453 C195.2,312.453 229.2,299.653 256.4,278.453 C284,256.853 304,226.053 312.4,190.853 C314.4,184.853 311.2,179.253 305.6,178.053 Z M244.4,261.653 C221.2,280.053 191.6,291.253 159.2,291.253 C121.2,291.253 86.8,275.653 62,250.853 C37.2,226.053 21.6,191.653 21.6,153.653 C21.6,122.053 32,93.253 50,70.053 C62.4,54.053 78,40.853 96,31.653 C94,36.053 92,40.453 90.4,45.253 C85.2,59.653 82.8,74.853 82.8,90.853 C82.8,128.853 98.4,163.653 123.2,188.453 C148,213.253 182.8,228.853 220.8,228.853 C237.6,228.853 253.6,226.053 268.4,220.453 C273.6,218.453 278.8,216.453 283.6,214.053 C274,232.453 260.8,248.853 244.4,261.653 Z" opacity=".601"/>
</svg>
